<svg width="334" height="263" viewBox="0 0 334 263" fill="none" xmlns="http://www.w3.org/2000/svg">
<path d="M0 240.5L2 245L3 242.5L5 240.5L10 241H13.5L16.5 243.5C17.6667 243.333 20 242.9 20 242.5C20 242 22.5 244.5 23.5 244.5C24.3 244.5 24.8333 243.167 25 242.5L26.5 239C28 239.833 31.1 241.5 31.5 241.5H36V237L37 233.5C39 233.667 43.1 234 43.5 234C43.9 234 46 235.667 47 236.5L48.5 234L53 231.5L59 229.5L57 226.5L64 224L63 221V213.5H65.5L61.5 208.5L56.5 207L52.5 200.5L46 193.5H42.5L38 189.5L34.5 184.5V177.5H29.5L28 173.5L24 170L22.5 171.5H19.5L19 175.5L15 178.5V184.5L17.5 190.5L12.5 195L16.5 198.5L15 201.5V205.5H13.5L8.5 209.5L9.5 217.5L4 223.5L3.5 232.5L2 234L0 240.5Z" fill="#D9D9D9"/>
<path d="M63 213.5H65.5L69 214L73.5 211.5L81 213L89.5 215.5L94 220L97 224V229.5L98.5 231.5L96.5 236L99 239V242.5L99.5 247.5L97.5 247L96.5 250L95 255L91.5 251.5L87.5 253.5L84.5 255L79 254.5L71 255L69.5 257.5H64.5L63 254.5L59.5 255L58.5 256.5L55 253.5H50.5L47.5 251.5L44.5 256L39.5 255.5L37 257.5L31 255H25.5L23.5 256.5L19.5 255H14.5L13 253L9 253.5L8 249.5L3 247L2 244.5L3 242.5L5 240.5L10 241H13.5L16.5 243.5C17.6667 243.333 20 242.9 20 242.5C20 242 22.5 244.5 23.5 244.5C24.3 244.5 24.8333 243.167 25 242.5L26.5 239C28 239.833 31.1 241.5 31.5 241.5H36V237L37 233.5C39 233.667 43.1 234 43.5 234C43.9 234 46 235.667 47 236.5L48.5 234L53 231.5L59 229.5L57 226.5L64 224L63 221V213.5Z" fill="#D9D9D9"/>
<path d="M97 229.5V224L96.5 220L99.5 217L102 217.5L105 215L110 214.5L110.5 218.5L114.5 222.5L115 233.5L110.5 237.5V249.5L101.5 255.5L99 263L95 254L96.5 250L97.5 247L99.5 247.5L99 242.5V239L96.5 236L98.5 231.5L97 229.5Z" fill="#D9D9D9"/>
<path d="M111 218.5L115 222.5L119.5 219L120.5 213L123.5 207L126 199L124.5 201L119.5 200L114 194.5L108 195L106 191.5L101.5 187.5L93.5 186.5L88.5 185L84.5 188L81 187.5L78 190.5V197L76 199.5L75.5 204H77.5L77 208L74 211.5L90 215.5L97.5 223.5L97 220L100 217L102.5 217.5L105.5 215L110.5 214.5L111 218.5Z" fill="#D9D9D9"/>
<path d="M77 208L74 211.5L69.5 214L65.5 213L62 208.5L57 207L53 200.5L46.5 193.5H43L39 190L35 184.5V177.5H30L28.5 173.5L24.5 170L23 171.5H20L29 162L33.5 162.5L44.5 156.5H50L52.5 154.5H59L63.5 157H67V159.5L70.5 159L72 164.5L75.5 165.5L74 169.5L77 175L74 179L78.5 177.5L82 182L88.5 185L84.5 188L81 187.5L78 190.5V197L76 199.5L75.5 204H77.5L77 208Z" fill="#D9D9D9"/>
<path d="M82 182L88.5 185L101.5 187L106 191.5L108 195L114 194.5L119.5 200L125 201L127 192.5L130 187L131 179.5L137 173L135.5 172L134.5 168L131 163.5L128 162.5L125.5 159L121.5 158.5L119.5 161L115 160L111.5 161.5L107 159.5L104.5 162.5L99.5 160.5L96 158.5L92 160L91.5 157L87 154.5L86.5 150.5H78.5L75 152.5L72 148.5L67 148L65 145.5L60.5 145L57 141.5L53.5 142L55.5 145.5L53.5 146.5L52.5 153L50 156.5L52.5 154.5H59L63.5 157H67V159.5L70.5 159L72 164.5L75.5 165.5L74 169.5L77 175L74 179L78.5 177.5L82 182Z" fill="#D9D9D9"/>
<path d="M57.5 141.5L54 142L57 140.5L52.5 132.5L55.5 126.5V113L51.5 103.5L48 101.5L50.5 97.5L48 94L50.5 88V84.5L58.5 84L63 85.5L68.5 79H75L79.5 74L84 72.5L90.5 75.5L95 76.5L98.5 75.5L102 74L107.5 76.5C108.667 75.5 111.2 73.6 112 74C112.8 74.4 117 75.1667 119 75.5V67C119 67.4 126.667 67.1667 130.5 67C130.667 65.5 131.2 62.7 132 63.5C132.8 64.3 138 63.8334 140.5 63.5L148 68H142.5L142 72L137.5 75.5H132L127.5 77.5L119 82L114.5 87L112 97.5C112.333 98.6667 112.9 101.1 112.5 101.5C112.1 101.9 109.667 103.667 108.5 104.5L105.5 100.5L100 99.5L98.5 104.5C99 105.667 100 108.1 100 108.5C100 108.9 99.6667 112 99.5 113.5L93.5 119L95 125L100 129.5L105 128L109 129.5L110 132.5C111.833 133.667 115.6 136 116 136C116.4 136 118.167 138.667 119 140L123.5 138L128.5 140.5L130.5 139.5L135 138L138.5 136L144 140H146V145.5L141 150.5L138.5 158.5L140.5 163.5L137.5 168L137.387 173.123L136 172L135 168L131.5 163.5L128.5 162.5L126 159L122 158.5L120 161L115.5 160L112 161.5L107.5 159.5L105 162.5L100 160.5L96.5 158.5L92.5 160L92 157L87.5 154.5L87 150.5H79L75.5 152.5L72.5 148.5L67.5 148L65.5 145.5L61 145L57.5 141.5Z" fill="#D9D9D9"/>
<path d="M143 68H148.5L153.5 72.5C157.667 71 166.1 68 166.5 68C166.9 68 170.667 69 172.5 69.5L184 71L179.5 77.5L180 84L178 92.5L172 95.5L165.5 103L162.5 114L163.5 126.5L154.5 134.5L147.847 136L146.5 140H144.5L139 136L135.5 138L131 139.5L129 140.5L124 138L119.5 140C118.667 138.667 116.9 136 116.5 136C116.1 136 112.333 133.667 110.5 132.5L109.5 129.5L105.5 128L100.5 129.5L95.5 125L94 119L100 113.5C100.167 112 100.5 108.9 100.5 108.5C100.5 108.1 99.5 105.667 99 104.5L100.5 99.5L106 100.5L109 104.5C110.167 103.667 112.6 101.9 113 101.5C113.4 101.1 112.833 98.6667 112.5 97.5L115 87L119.5 82L128 77.5L132.5 75.5H138L142.5 72L143 68Z" fill="#D9D9D9"/>
<path d="M163 114L164 126.5L170.5 130.5L175.5 127.5L183.5 130L186 129.5L191 137L198 141.5C199.167 141.167 201.5 140.6 201.5 141C201.5 141.4 205.167 145.5 207 147.5L207.5 154L214 157.5L218.5 162.5L228.5 153L231 152L236 155H242.5L251 159.5L252 156.5L249 150L249.5 143L247.5 136.5L240 130.5L235.5 126L229 118L229.5 112L218 107L209 100L201.5 92.5L190.5 88L180.5 84L178.5 92.5L172.5 95.5L166 103L163 114Z" fill="#D9D9D9"/>
<path d="M252 156.5L251 159.5L257.5 155L262.5 153.5L258.5 137.5L264.5 127L270.5 119L274.5 122.5L281.5 119L289.5 122.5L291.5 126L297.5 122.5H304C305 121.5 307.2 119.6 308 120C308.8 120.4 311.333 120.167 312.5 120L311.5 109.5L315.5 107L311.5 97.5L308 93.5L308.5 88.5L313.5 86.5V80.5H310.5L312.5 75L310.5 71.5L317.5 66V54L321.5 45L324.5 39L321.5 34.5L324.5 23L333.5 20V15L323 12.5L310.5 5L306.5 0L295 2L289.5 3.5L289 5L283.5 5.5V12.5L278 16.5L277 20L273 23C272.5 24.1667 271.5 26.6 271.5 27C271.5 27.4 268.167 28.8333 266.5 29.5V34.5L258 38L253 37L242 44L239 48.5H235L233 44.5L224 48H220L216.5 50L208 49L203 46L196.5 54.5L188 62L186 68.5L183.5 72.5L180 77.5L180.5 84L190.5 88L201.5 92.5L209 100L218 107L229.5 112L229 118L235.5 126L240 130.5L247.5 136.5L249.5 143L249 150L252 156.5Z" fill="#D9D9D9"/>
</svg>
