<svg width="240" height="198" viewBox="0 0 240 198" fill="none" xmlns="http://www.w3.org/2000/svg">
<path d="M5 24L0 20L5 14L9 9.5L14 3.5L26 2.5L36 4.5L40.5 0H49L56.5 8.5L63.5 9.5L75 15.5L83.5 14.5L89.5 18L95 15.5L107 19L110 22.5L120.5 25L122 29.5L125.5 32L131 31L132 37L133.5 40L131 45L124.5 49L123 53.5H121.5L120.5 55L116.5 46L110.5 42L104.5 41.5L97.5 38L89.5 37L80.5 35L72.5 35.5L65 37H46.5L31.5 34.5L26.5 36L18.5 33L13 28H9.5L5 24Z" fill="#D9D9D9"/>
<path d="M72 38.5V35.5L80 34.5L88.5 36.5L97.5 37.5L104.5 41.5L110 42L116.5 46L120.5 53.5L121 58L124.5 61L125 63L129 65.5L133 68.5V75.5L140 81L130.5 80L127.5 74.5H123.5L121 70.5L115.5 70L111 68.5L110 71L107.5 70L103 66.5L100.5 68L93 67L90 69.5L85.5 68L78.5 64.5L77.5 58L79 55L79.5 49.5L72 38.5Z" fill="#D9D9D9"/>
<path d="M132 37L131 31H134L137 29L139 26.5L136 22.5L136.5 16L140 21.5L144 24.5L144.5 28.5L148.5 27L150 30L152 28.5L159 31L163 28L165 30L163.5 32.5L159 38.5L155.5 45L148.5 51.5V54.5L144.5 56L131.5 67.5L125.5 63.5L125 61L121 58L120 55L121 53.5H123L124.5 49L131.5 45L133.5 40L132 37Z" fill="#D9D9D9"/>
<path d="M148.5 51V54.5L155.5 56.5L160 58.5L165 59.5L167 58L171 58.5L174 61L178 61.5L178.5 65.5L185 70.5L192.5 69.5L195.5 66.5L199 65.5L204.5 58H206V59.5H209L210 57.5L213 57L214.5 58H221L222.5 56H226.5L230 59.5L234 60H237L239.5 56L239 50.5L235.5 47L232.5 42.5L235 35.5L231.5 29.5L227.5 27H221.5L220.5 30L219 29H213L211 30L208 29.5L204 31.5L201 31C200 30.3333 197.9 29 197.5 29C197.1 29 196.333 30 196 30.5L194 28L189 29L184 26.5L179.5 30L177 28.5L172.5 30.5L168.5 31L167 29L165 30L159 38.5L155.5 45L148.5 51Z" fill="#D9D9D9"/>
<path d="M133 75.5L140 81L146 84.5L149.5 85L153 88.5L157.5 89L163 89.5L166 87L170.5 87.5L173.5 89.5L178 89L179.5 90.5L177 91.5L178.5 93L180.5 93.5L185 95L187 99L192 97.5L193 95.5L197.5 96L201 97L200 100L196.5 103.5L198 105.5L197 110L193.5 114L198.5 118V120.5L203 119V106L207.5 103.5L215.5 104.5L216 100.5L214.5 97.5L217 96.5L220 99.5H226.5L229.5 98H234L238 92L239 84.5L235 77.5L234 71.5L237.5 66.5L239 63.5L237.5 60L230.5 59.5L227 56H222.5L221 58H214.5L213 57L210 57.5L209 59.5H206.5L205.5 58H204.5L199.5 65.5L195.5 66.5L192.5 69.5L185 70.5L179 65.5L178 61.5L174.5 61L171.5 58.5L167 58L165 59.5L148.5 54.5L144.5 56L131.5 67.5L133 68.5V75.5Z" fill="#D9D9D9"/>
<path d="M198.5 120.5L198 123.5L197 129.5H192.5L188.5 133L187 138.5L183 138L178.5 136L179.5 140.5L185 142V147.5L180 149.5L175.5 155.5L170.5 154.5L163.5 154L162 157.5L157 161.5L155.5 157.5L157 155.5V152.5L154 151L152.5 154.5L151.5 152.5L147 151V147.5L145 144.5L144 140.5L139 140L137.5 143L133.5 146.5L134.5 142L133 138L134.5 133L133 129.5L134.5 125L133.5 121.5L128 120.5L125.5 123L121 120.5L121.5 115.5L118.5 110L114.5 109L116.5 107L118.5 100.5L118 97.5L121.5 96L129.5 100.5L133.5 104L137 100L139 93L144.5 87L149.5 85L152.5 88.5L162.5 89.5L165.5 87L170.5 87.5L173.5 89.5L178 89L179.5 90.5L177 91.5L178.5 93L185 95L187 99L192 97.5L193 95L201 97L200 100L196.5 103.5L198 105.5L197 110L193.5 114L198.5 118V120.5Z" fill="#D9D9D9"/>
<path d="M116.5 107L118.5 100.5V97H113L109.5 101L109 105.5L105.5 108L102 111.5L100.5 118.5C101.5 120 103.4 123 103 123C102.6 123 102.833 126.667 103 128.5L105 130.5L103 134.5L108.5 138L106 142L101.5 145.5L104 147.5L102 149L103 152.5L106.5 153.5L109 151L112 152L110 155L107 156.5L111 159.5L111.5 163L116.5 163.5L116 166.5L119 168L116.5 171L119 174.5L121.5 173.5L124 174.5L123.5 176.5L122 179.5L124.5 180.5L123 183.5L124.5 188.5L128.5 189.5L130 192.5L132.5 193.5L133.5 198L134.5 186L143 175.5L141.5 165.5L148 164.5L157 161.5L155.5 157.5L157 155.5V152.5L154 151L152.5 154.5L151.5 152.5L147 151V147.5L145 144.5L144 140.5L139 140L137.5 143L133.5 146.5L134.5 142L133 138L134.5 133L133 129.5L134.5 125L133.5 121.5L128 120.5L125.5 123L121 120.5L121.5 115.5L118.5 110L114.5 109L116.5 107Z" fill="#D9D9D9"/>
<path d="M90 69.5L78.5 64.5L77 62.5C76.5 61.6667 75.5 59.9 75.5 59.5C75.5 59.1 72.8333 57.6667 71.5 57L69.5 61L72.5 64L71.5 66.5L68.5 64H65.5L65 69.5L64.5 76L63 83.5L62.5 89.5L59.5 92.5L56 95.5L57 98L56.5 102.5L54.5 105L55.5 107.5L55 115L56.5 118.5L61 122L66.5 123L66 125L68.5 127L69.5 129V131.5L73 132.5L72.5 133.5L73.5 136.5L76 138.5L75.5 136.5L78 134.5H80.5L81 136.5L80 139L82 140L83 137.5L84 134.5L87.5 135V141L89 142L90 138.5L92 137.5L94.5 138.5L93 141.5L98 145.5L99.5 142L101.5 146L106 142L108 138L103.5 134.5L104.5 130.5L102.5 128L103.5 122.5L100 118.5L102.5 111.5L109.5 105.5V101.5L113 97H118.5L121.5 96L129 100.5L133 104L137.5 100.5L138.5 93.5L145 86.5L149.5 84.5H145.5L140.5 81L130.5 79L128 74.5H123.5L121 70.5L116 70L111 68L110 71.5L108 69.5L102.5 66.5L100.5 68L93.5 67L90 69.5Z" fill="#D9D9D9"/>
</svg>
