<svg width="1030" height="682" viewBox="0 0 1030 682" fill="none" xmlns="http://www.w3.org/2000/svg">
<path d="M302 609.5L284 611L293.5 618L297 623L303 628L311.5 637H319L330.5 645.5L334 642L339.5 645.5L344 643.5L355 639L363 636L371.5 633L383.5 635L385.5 631.5L383.5 626L385.5 620L396.5 608.5L408 615.5L415.5 624L428 620L439.5 622H451.5L457.5 625L486.5 622L488.5 625H492.5L495 628.5H496.5L507 634L515.5 635L518.5 632.5L530.5 636.5L543.5 632.5L548 635L555.5 636.5L558.5 638.5L563.5 637.5L566.5 641.5H571.5L577.5 647.5H583L586.5 649.5V652.5L593.5 657.5L593 665L598 668L607 663.5L608.5 670.5L611 672L608.5 675.5L610.5 678.5L618.5 682L617.5 678.5L619.5 676.5L617.5 672.5L619.5 663.5L626 657L627 653.5H630L633.5 651L639 654.5L649 653.5L657.5 643H662L665 637.5H670.5L675.5 632.5H683L702 624.5L703 625.5H708L714 621L717.5 614L726.5 611L734 599L743 595.5V591L750 584.5L751 578L764.5 569.5L767 564L763.5 560L759.5 555L750 548.5L744.5 547.5L739.5 548.5L737 556L734 561L725.5 560L717.5 563L711.5 564L709.5 561H705.5V557.5H700.5L697.5 555L694.5 556L693.5 554L691 551.5L689.5 555L685.5 554L683 556H678L674.5 555L667.5 560L662 563L654.5 559L650 556V554L649 550.5H647L645.5 545.5L642 542.5L637 537.5L632.5 530.5L624 524L619 519L613.5 517L610 511L607.5 503.5L605 500L603.5 494L599.5 487.5L596 483.5L594 478H591L589.5 473.5L584.5 468L581.5 473.5L577 474.5L571 480.5L565.5 481.5L562 485.5L557.5 486L556.5 482L553 478L547 478.5L543 475.5L538.5 477L535.5 475.5H530.5L529 473.5L525 472L524 473.5L517.5 475.5L515 473.5L510 476.5L504.5 475.5L493.5 476.5L490 475.5L476 470V461.5L472 458L457.5 448L456.5 445H446.5L438.5 444L432.5 448L429 444L421.5 442.5L405 451L400 456V471.5L395.5 476.5L386 491L379.5 492.5L368 484H362.5L353 482.5V491L348 501L344 524.5L350 529L360 542L362.5 553L353 576L340.5 591.5L338 593.5V598.5L326 605.5L306.5 607L302 609.5Z" fill="#D9D9D9"/>
<path d="M307 607L302.5 609.5L284.971 610.961L279 599.5L283.5 591.5L268 569.5L260 560.5V557L254 551L252 547.5L239 539L237.5 532.5L232.5 524.5L229 510.5L241 508.5L260 504L263 491L260 475L279 466H283.5L289.5 463.5L298 464.5L305 458V454L311.5 448.5L320 447L325.5 442.5H331L339 438H342.5L344 434L360 436L363 432L352.5 418.5L355.5 410.5L353.5 405L355.5 402.5L352.5 395L346.5 384.5L349.5 376.5L360 370L367.5 362L369 352.5L366.5 345L379 337.5L384 340.5L391 336H395L401.5 326L399.5 321L401.5 318.5L404 321L407.5 327.5L417 315.5L421.5 307H424.5V302.5L421.5 297V292L419.5 290V277L423.5 267L421.5 262L406.5 252.5L409 244.5V241L404 239V231.5L406.5 222.5L411 226.5L417 228.5L429.5 227.5L541 290L542.5 294L548.5 300.5L550 306L545 308.5L546 313.5L542.5 314.5L540.5 331L543.5 337.5L540.5 355.5L528.5 370V373L526 375.5L531.5 379V381.5L539 386L541.5 391L547 396L541.5 398.5L529.5 404L515 420L509 418C508 419.333 505.8 422 505 422H496.5L492 427L479.5 424.5L472.5 427L460 431L457 437.5V445H447L439 444L433 448L429.5 444L422 442.5L405.5 451L400.5 456V471.5L396 476.5L386.5 491L380 492.5L368.5 484H363L353.5 482.5V491L351 496L348.5 501L344.5 524.5L350.5 529L360.5 542L363 553L353.5 576L341 591.5L338.5 593.5V598.5L326.5 605.5L307 607Z" fill="#D9D9D9"/>
<path d="M241 508.5L229 510.5L222.5 502.5L218.5 501L217.5 497.5L207.5 496L204 491L192.5 493L177 489.5L170 487L168 479L161.5 469L162.5 462.5L153.5 458L148.5 448L142 444L129.5 437.5H125.5L120 430.5L125.5 417L120 406.5L125.5 403.5L124 397L129.5 392.5H137H147L153.5 389L161.5 387.5H170.5L178.5 382L184.5 385.5H194L203.5 382L214.5 383.5L221.5 385.5L219 372L223 349.5L236 336L251.5 325.5L254 320.5H258L267.5 313.5V308.5L274.5 302L277 294L285.5 292L294.5 285.5L303.5 277V267L307.5 257.5V252.5L302 244.5V237.5L307.5 231.5C306 227.833 302.8 220.7 302 221.5C301.2 222.3 295 222.5 292 222.5L288.5 214L285.5 205L291 196L293.5 192.5V188H302L308.5 185L317.5 189H331.5L339 196C341.667 196.667 347.1 198.2 347.5 199C347.9 199.8 348.667 206 349 209L359.5 214L369 217L372 219.5L378.5 214L386.5 217L392.5 222.5H401.5H406.5L404 231.5V239L409 241V244.5L406.5 252.5L421.5 262L423.5 267L419.5 277V290L421.5 292V297L424.5 302.5V307H421.5L417 315.5L407.5 327.5L404 321L401.5 318.5L399.5 321L401.5 326L395 336H391L384 340.5L379 337.5L366.5 345L369 352.5L367.5 362L360 370L349.5 376.5L346.5 384.5L352.5 395L355.5 402.5L353.5 405L355.5 410.5L352.5 418.5L363 432L360 436L344 434L342.5 438H339L331 442.5H325.5L320 447L311.5 448.5L305 454V458L298 464.5L289.5 463.5L283.5 466H279L260 475L263 491L260 504L241 508.5Z" fill="#D9D9D9"/>
<path d="M124 397L125.5 403.5L120.5 395.5L127.5 387.5L125.5 380.5L124 370.5L120.5 361.5L112.5 352.5L114 346V333.5L112.5 324L108 322.5H98.5L95 317L101.5 313.5L95 306.5L101.5 297L98.5 287V275.5L95 265L88.5 251.5L87 236L85.5 226.5V207L88.5 200.5L83 199.5L75 182V173.5L72 168.5L57.5 166.5L52 159L59.5 157.5L57.5 149L61 142L45 125.5L47.5 117.5V107.5L57.5 101L56.5 92L40 87H30.5L25 79L16.5 69.5L12 60L0 52.5L6 45.5L7 38L18.5 26.5L23.5 13.5L40 10L49 5L61 12.5L73.5 10L85 11L106.5 0L112 8L124 16L131 26.5H144.5L158.5 21.5L171 28L188 23.5H200L208.5 22.5L212.5 30L232.5 42.5L236 50L243.5 57V71L247.5 81L255 84L263 86L266 95.5H270L271 104L270 111.5L283.5 118.5H296.5L305.5 123.5L311 130.5H321C320 133.833 317.9 140.6 317.5 141C317.1 141.4 315 144.167 314 145.5L316 154.5L314 161L317.5 168.5V173L311 180L308.5 185L302 188H293.5V192.5L291 196L285.5 205L288.5 214L292 222.5C295 222.5 301.2 222.3 302 221.5C302.8 220.7 306 227.833 307.5 231.5L302 237.5V244.5L307.5 252.5V257.5L303.5 267V277L294.5 285.5L285.5 292L277 294L274.5 302L267.5 308.5V313.5L258 320.5H254L251.5 325.5L236 336L223 349.5L219 372L221.5 385.5L214.5 383.5L203.5 382L194 385.5H184.5L178.5 382L170.5 387.5H161.5L153.5 389L147 392.5H137H129.5L124 397Z" fill="#D9D9D9"/>
<path d="M541.5 294L540 290L542.5 284.5L546 283L547.5 280L551 278.5V275.5L556 272L562.5 273.5H568L572.5 272H578L583 269.5L588.5 260.5H597L602 259L601 255.5L604 253L610 262H615.5L625 255.5L627.5 252L630.5 249.5L635 252H652L658.5 248.5L666.5 250.5L670.5 259L669 262L672.5 273.5L674.5 300.5L671.5 304L670.5 310.5L668 312.5L666.5 317.5L670.5 326V333L662.5 335.5L649 343L646 347H643.5L632.5 353.5L618 372L615 382.5L618 388.5L613 398.5L615 405L613 408.5L620.5 419V430L629.5 445L626 457L613 470.5L611.5 479L606 490V496.5L604.5 499L599.5 488L596 485.5L594 478H590V473.5L584 468L581.5 473.5H577.5L570.5 480.5L564 481.5L562.5 485.5H556.5V481.5L553.5 479L547 478L543.5 475.5L538 478L535.5 475.5H530L524.5 472L518 475.5L514 473.5C513.2 473.1 510.667 475.333 509.5 476.5L505.5 475.5L492.5 476.5L476 470.5V462L459 451L456 445V437.5L459 431L471.5 427L478.5 424.5L491 427L495.5 422H504C504.8 422 507 419.333 508 418L514 420L528.5 404L540.5 398.5L546 396L540.5 391L538 386L530.5 381.5V379L525 375.5L527.5 373V370L539.5 355.5L542.5 337.5L539.5 331L541.5 314.5L545 313.5L544 308.5L549 306L547.5 300.5L541.5 294Z" fill="#D9D9D9"/>
<path d="M606.5 496.5L605 499L606.5 502.5L613.5 517.5L619.5 518.5L623.5 523L633 530.5L636.5 537L645 545L647 550L648.5 551L650 556.5L661.5 563L674 555L676.5 556.5H683L685 554L689 555L691 551L694 556.5L697 555L701 557.5H705L706 561H709L712 564L725 559.5L734 561L739.5 548.5L745 547L749.5 529.5L752 519.5L750.5 510V501.5L746.5 496.5V480L745 464L746.5 453.5L754 451L758 450L761 453.5L764.5 454.5V445H767L770 440.5L768 434L774 428L784 416.5V406L791.5 400L796.5 391.5V386L802.5 378.5L809.5 375.5V370L819.5 357.5V346.5V337L824.5 332L815.5 326V312.5L811.5 305.5L812.5 297L819.5 289L826.5 287.5V282L829.5 279V272.5H824.5L815.5 267.5L803 264.5L789 257L782.5 251.5L775.5 248V242L765 239.5L755 242L746.5 244.5L738 242L732.5 244.5L730 251.5L723 255.5L717 260L709.5 259L702 264.5H694L677 273.5H673L675 300.5L672 304L671 310.5L668.5 312.5L667 317.5L671 326V333L663 335.5L649.5 343L646.5 347H644L633 353.5L618.5 372L615.5 382.5L618.5 388.5L613.5 398.5L615.5 405L613.5 408.5L621 419V430L630 445L626.5 457L613.5 470.5L612 479L606.5 490V496.5Z" fill="#D9D9D9"/>
<path d="M746.5 244.5L738 242L733.5 239L729 237.5L725 234V228.5L729 223L733 217L738 210.5L742.5 209L746.5 203C747 201 748 196.8 748 196C748 195 752 195 752.5 194.5C752.9 194.1 755 190.667 756 189L758 182L763 180L770 178.5L771 173.5L775.5 166L779.5 160L785.5 156.5L789.5 149.5H795L802.5 147.5L804 143.5V135V129.5L810 128.5L819.5 127L823.5 114.5L821 111L828.5 107L831 108L839.5 111L849.5 113L856 122L865 124.5H872L874.5 119.5L880 113L893.5 106.5L902.5 105.5L911.5 99.5L917.5 104.5L930 111L936 118L938 129L939 132.5L945.5 133L954 139.5L955 146.5L961 157L966.5 160L971.5 168.5H974L981.5 170L987 166.5H994.5L1000 165L1005.5 168.5H1011L1015 173V178.5L1011 186.5L1016 189L1021.5 190L1029.5 195.5V205L1025 209.5V218L1019 224.5L1017.5 232L1011 235L1006 239.5L997 243L996 249L999.5 254L1007 257L1009 268L1006 272.5L1013 280.5L1023.5 291L1019 291.5V297.5L1014.5 302.5L1013 307.5L1018 315L1019 330.5L1014.5 337.5L1016.5 345.5L1014 348.5H1010L1000.5 350L992.5 348.5L986.5 350L984 357.5L986.5 367L981 371.5V378L974 388L975 395L972.5 400L974 405.5L971 411L966.5 419.5L960.5 423.5L954 428L950 425.5L942 428L936 425.5L927.5 422.5L923.5 426L917 428L915.5 434L911 436.5L910.5 448.5L904 460L899.5 468.5L893 473L890.5 477L886.5 471L880.5 465L874 464L866 465L861 462.5L856 460L852 461L848.5 460L843 461H838.5V458.5L835 456.5L831.5 457.5H827L823.5 456L808.5 453.5L804 457.5L799.5 456.5L795 458.5L786 456H774L767 453.5L764.5 454.5V445H767L770 440.5L768 434L774 428L784 416.5V406L791.5 400L796.5 391.5V386L802.5 378.5L809.5 375.5V370L819.5 357.5V346.5V337L824.5 332L815.5 326V312.5L811.5 305.5L812.5 297L819.5 289L826.5 287.5V282L829.5 279V272.5H824.5L815.5 267.5L803 264.5L789 257L782.5 251.5L775.5 248V242L765 239.5L755 242L746.5 244.5Z" fill="#D9D9D9"/>
</svg>
