<svg width="545" height="522" viewBox="0 0 545 522" fill="none" xmlns="http://www.w3.org/2000/svg">
<path d="M220.5 303L217 322.5L222 327L229 329.5L234.5 326L242 341L253 347L265 349L275.5 355.5L288 360H313L314.5 362.5H318.5L326 366.5L337 369.5L344 371.5L347 374L352.5 370L361 376.5L362.5 370L367.5 365.5L365 357L371.5 351.5L378 352.5L384.5 349L391.5 345.5L403 342L404.5 332L408 324.5V315L412.5 307V301L416 297.5L417.5 290.5L409 275L412.5 273.5L414.5 268L424 258.5L423 248.5L427.5 244L429 237.5H435L457.5 219.5L460.5 214L466.5 212L478 205H484L487.5 203L494 206.5L503 205.5L516 203L520 197L524.5 186.5L527.5 175.5V169.5L532 165L537 162.5V155L536 150L537 139.5L542 132.5L544.5 127L540.5 120.5L531 110.5L527.5 101L531 93L529 86.5L525 68.5L524 56L525 46L513 41.5L505 32.5L503.5 24.5L494.5 15L482 13L478.5 14L469 10L459.5 9L454 10L447 6.5L441.5 8L437.5 5.5L421 4.5L407.5 8H402L396.5 6.5H389.5L380 3.5L373.5 3L370.5 1L364.5 0L359 4.5L358.5 14V46L362 49L361.5 57L364.5 61.5L363.5 70L361.5 76.5V84L358.5 91V97L368.5 102L373.5 107L379 113L376.5 115.5L373.5 122.5L362.5 127.5V133.5L356.5 139L354 144.5L347 149L338 161.5L333 162.5L328 164.5V169L318.5 176.5L314.5 174.5L295 181.5H288L284.5 187.5H277L274.5 193H270.5L262.5 202L252.5 203L247 200.5L244.5 203L240.5 202L239 204.5L232 213L231 220L232 227.5H228.5L231 232L228.5 230.5L226 234.5L227.5 237.5V240.5V244.5L224.5 248L226 249L227.5 255.5L223.5 258L221.5 262L223.5 267.5L224.5 270.5L227.5 272V276.5L231 278V283.5L219 294L220.5 303Z" fill="#D9D9D9"/>
<path d="M221 303L217.5 322.5L211 328.5L210 334.5L203.5 338.5V349L198.5 352.5L195 358.5L191.5 366L190.5 371.5L186.5 376V387L184 390.5V395.5L178.5 394L174.5 390.5L170.5 385L166.5 381H158.5H153.5L147 378.5L143 374.5L137 371.5L131.5 370.5L127 374.5V377.5H121.5L114.5 381H106.5L101.5 371.5L99.5 362.5L97 352L101.5 343L105.5 334.5L109 330V322.5L112 320L117.5 311L121.5 306L126 302V294V288.5L124 286L119.5 282L114.5 283.5L109 280.5L101.5 279L94.5 273L88.5 265.5L91.5 261.5L93 256L90 250.5L86 248L84 240L80.5 239V235L75 231L72 225L60.5 220.5L56 219.5L54 222.5L51 221.5L45 217.5L42 218L40.5 222.5L32.5 226.5L23.5 231L22 237.5L19 242L11 241L3 245L4 234.5L2 230L0 220.5L2.5 216L2 204.5L0 195L3 186L2 175L0.5 168L6 160.5L10.5 158L20.5 165.5L30 174.5L35.5 171L43 169.5L53 171.5H63.5L66.5 173L73.5 174.5L86 173.5L99.5 171.5L102 175H106L113 180.5L127 184.5L131.5 182.5L145.5 186.5L155.5 182.5L162 185.5L169 186L171.5 188.5L176 186.5L179.5 192H185.5L190.5 197.5H196.5L199 198.5L200 202.5L206.5 207V214.5L211.5 217.5L221 213.5L220 219.5L223 223L222 226L229 231L226.5 234.5L228 237.5V240.5V244.5L225 248L226.5 249L228 255.5L224 258L222 262L224 267.5L225 270.5L228 272V276.5L231.5 278V283.5L219.5 294L221 303Z" fill="#D9D9D9"/>
<path d="M44.5 217.5L41.5 218L42.5 225.5L41 229.5L39.5 235.5L39 245L45.5 252L45 258L47 264L48 270.5L58.5 280L59 283L64 288L64.5 290.5H68C70.6667 294.333 76 301.9 76 301.5V311L80.5 314.5L82.5 324L79.5 327L76 337L68.5 343L69 345.5L67 348.5L67.5 350.5L69 356L67 359L68.5 362.5L69 370.5L67.5 371.5L70 376.5L71.5 378.5L68.5 387.5L69 391.5L75 399L78 400L80 403.5L85 406V408.5L93.5 415L98 419L101 418.5L106.5 421.5L108.5 425L102.5 431.5L103.5 434L99 439L97.5 444L101 447.5V454L103.5 459.5L99 463L86.5 476.5H77.5L73.5 480V490L75 493L73.5 505L77.5 501L84 497.5L90 490L95.5 486L96.5 480L103.5 479L108.5 469.5L119 466.5H131L139.5 459.5L142.5 447.5L158 435.5L163.5 432.5L180.5 417.5L185.5 416L186 408L184 402.5V395.5L178 394L174 390.5L170 385L166 381H158H153L146.5 378.5L142.5 374.5L136.5 371.5L131 370.5L126.5 374.5V377.5H121L114 381H106L101 371.5L99 362.5L96.5 352L101 343L105 334.5L108.5 330V322.5L111.5 320L117 311L121 306L125.5 302V294V288.5L123.5 286L119 282L114 283.5L108.5 280.5L101 279L94 273L88 265.5L91 261.5L92.5 256L89.5 250.5L85.5 248L83.5 240L80 239V235L74.5 231L71.5 225L60 220.5L55.5 219.5L53.5 222.5L50.5 221.5L44.5 217.5Z" fill="#D9D9D9"/>
<path d="M181 417.5L186 416L186.5 419.5V425L182.5 431L185 437L189 442L186 447.5L186.5 452L186 459.5L189 462.5L192 470L191 475L195.5 484.5L195 492L185 504L178 508V512L175.5 516L170.5 514.5L157.5 512L154.5 514.5L145.5 517L134.5 507L130 509.5L125 508.5L123.5 512H119L113 513L109.5 519L104 518.5L99 520L93 518.5L90.5 521.5L88 520L85 521.5L76 516.5V510.5L74 505L78 501L84.5 497.5L90.5 490L96 486L97 480L104 479L109 469.5L119.5 466.5H131.5L140 459.5L143 447.5L158.5 435.5L164 432.5L181 417.5Z" fill="#D9D9D9"/>
<path d="M195 484.5L194.5 492L199 494H209L213 492H218L222.5 489L228.5 492.5L239 485L243 484.5L244 482.5H248.5L257 478.5L258 474.5L262.5 472.5V469L266.5 465.5L273.5 457.5L274.5 452L279.5 450L280 446.5L286 448L288 445L292 444.5L301 446.5L309 454.5L316.5 456.5L319.5 460.5L325.5 461.5C325.833 460.5 326.5 458.4 326.5 458C326.5 457.6 323.5 454.5 322 453V445L317.5 440.5V436.5L313.5 431.5L309 423L313 419.5L313.5 414L317.5 411.5L319.5 406.5L331 398H323.5L321 396.5L318.5 394.5L316 395H311.5L310 396.5H305.5L301 393.5L295 392L288 399V402L286 403L284.5 406.5L281 410H276L271.5 414L269 419.5L262.5 425L259.5 420.5L254 417.5L252 416L247.5 414.5L240.5 410L239 411.5L235.5 410L232 412.5L229.5 413.5H224.5L220.5 417.5L216 416L215 413.5L213 412.5L211.5 414.5L205.5 414L204 411.5L196.5 408.5L193.5 409.5L190.5 407.5L186 406.5V407.5L185.5 416L186 419.5V425L182 431L184.5 437L188.5 442L185.5 447.5L186 452L185.5 459.5L188.5 462.5L191.5 470L190.5 475L195 484.5Z" fill="#D9D9D9"/>
<path d="M194 409.5L191 407.5L186.5 407L184.5 402.5L184 395V390.5L186.5 387V376L190.5 371.5L191.5 366L198.5 352.5L204 349L203.5 338L210.5 334L211 328.5L218 323L222.5 327L229 329L235.5 326L242.5 341L253.5 347L265 348.5L276.5 356L288 360H313L315.5 363L319 362.5L325 366L344 371.5L347.5 374.5L342.5 384.5L338 387.5L331.5 398H324L321.5 396.5L319 394.5L316.5 395H312L310.5 396.5H306L301.5 393.5L295.5 392L288.5 399V402L286.5 403L285 406.5L281.5 410H276.5L272 414L269.5 419.5L263 425L260 420.5L254.5 417.5L252.5 416L248 414.5L241 410L239.5 411.5L236 410L232.5 412.5L230 413.5H225L221 417.5L216.5 416L215.5 413.5L213.5 412.5L212 414.5L206 414L204.5 411.5L197 408.5L194 409.5Z" fill="#D9D9D9"/>
<path d="M78 501L74 505.5L68.5 501L65.5 495L61.5 489L58.5 474.5L60.5 469L58.5 466L59 458L61.5 454.5L59 449.5L56 443.5L49 439L47.5 433H43L38.5 429V424.5C38.5 424.1 37.5 423.667 37 423.5V418.5L36 410L37.5 403.5L35.5 400L34.5 391L37.5 387V380.5C37.5 380.1 35.5 377.667 34.5 376.5L36 373L33.5 364C34.3333 362.5 36.1 359.4 36.5 359C36.9 358.6 33 355.833 31 354.5L26.5 345.5L28 338L26 334.5L24 322L21 319.5L22.5 315L18 314.5L8.5 291L9 286.5L7 283L8.5 279L2 271.5L3 245L10.5 241L19 242L22 238.5L23.5 231L40 222.5L42 218L43 225.5L41.5 229.5L40 235.5L39.5 245L46 252L45.5 258L47.5 264L48.5 270.5L59 280L59.5 283L64.5 288L65 290.5H68.5C71.1132 294.256 76.7674 301.598 76.993 301.515C76.9976 301.478 77 301.472 77 301.5C77 301.508 76.9977 301.513 76.993 301.515C76.9327 302 76.5 307.899 76.5 311L81 314.5L83 324L80 327L76.5 337L69 343L69.5 345.5L67.5 348.5L68 350.5L69.5 356L67.5 359L69 362.5L69.5 370.5L68 371.5L70.5 376.5L72 378.5L69 387.5L69.5 391.5L75.5 399L78.5 400L80.5 403.5L85.5 406V408.5L94 415L98.5 419L101.5 418.5L107 421.5L109 425L103 431.5L104 434L99.5 439L98 444L101.5 447.5V454L104 459.5L99.5 463L87 476.5H78L74 480V490L75.5 493L78 501Z" fill="#D9D9D9"/>
</svg>
