<svg width="219" height="216" viewBox="0 0 219 216" fill="none" xmlns="http://www.w3.org/2000/svg">
<path d="M42 133V128.5L37.5 126.25L41 125L43 122.5L48.5 118L51 115L56 113L61 115H66.5L69 112L72 109L75.5 112L78.5 109L83.5 106L94.5 104L96.5 100L95.5 96.5L98.5 96L109 93.5L116 93L124 93.5L130 92.5H134L134.5 94L131.5 97.5L128 99.5L127 104L128.5 107L131.5 113L132.5 120.5L128 124L124 128L122.5 131.5L119 136L116.5 134.5L111 131.5L105.5 129.5H99.5L96.5 131.5L95.5 136L90.5 138L89 143L90.5 147L88.5 148.5L87.5 156L88.5 159.5L85.5 165.5V169L88.5 173.5V178.5L86.5 183V192L84.5 193.5L76 191.5L71 187.5L65 183.5L57 182L51.5 177V171L47.5 166L42 160L46.5 143L42 133Z" fill="#D9D9D9"/>
<path d="M33 123.5L37.8182 125.909L41 125L42.5 123L49 118L51 115L56 113L60.5 115H66.5L72 109L76 112.5L78 109L83.5 106L94 104L96.5 100.5L95.5 96.5L94 94.5L91.5 95L87.5 93.5L85.5 92L85 87L82.5 83.5V78.5L87 77.5L89.5 74L91.5 73L95.5 70.5L100 69H106.5L110 67L110.5 62.5L109.5 58.5L108 55.5H105.5L101 53.5L94.5 51L91.5 47L90 42L90.5 39L91.5 28.5L92 22.5V15L88 17.5L84 18C83 17.5 80.9 16.4 80.5 16C80.1 15.6 78.3333 17.5 77.5 18.5L71.5 15.5L69.5 18L63.5 19.5L57 23.5V30H54L50.5 32.5V37L41 49L43.5 52L47 53.5H50.5L51 58.5V63.5L53 66L57 70L61.5 74L66.5 78.5L63.5 78L59.5 77.5L56 79.5L57.5 82.5L55 85.5L54 91L50.5 95.5L46.5 99.5L45 102L41.5 104L33.5 107L28.5 110L19 109L25 111L25.5 115L19.5 119.5L24 123.5H33Z" fill="#D9D9D9"/>
<path d="M12 112.5L20 109.5H24H28.5L34 106.5H37L45.5 102L46.5 99.5L50.5 95.5L54 90.5L55 86L57 83L56.5 79.5L59.5 77.5L66.5 78.5L51 64.5L50.5 53.5L44 52.5L41.5 49.5C40.5 50.3333 38.4 52 38 52C37.6 52 31.1667 53.3333 28 54L20 60L19 67.5L14 70V73.5L8.5 78.5L8 87L0 94.5L2 95.5L1.5 106.5L6 111.5L12 112.5Z" fill="#D9D9D9"/>
<path d="M86.5 192L85 193.5L88 194L93.5 195.5H102L109 196V204.5L111 207.5L118 208.5L125 202.5L129.5 206.5H134.5L139.5 210.5L141.5 216L146 215.5L152.5 210.734L153 207L153.5 202L150.5 201L149.5 197L152.5 193L155 189L152.5 187.5V183L155 181.5V178L153.5 175.5H150L147 178L144 177L140.5 178.5L138 180.5L133.5 179L133 176L136.5 170V164.5L137.5 160L144 162.5H146.5V157.5V153.5L145.5 150.5V143.5L142 139.5L135.5 138L130 136L120.5 134L119 136L106 129.5H100L97 131.5L95.5 136L91 138L89 143L91 147L88.5 148L87.5 156L88.5 159.5L85.5 165.5V169L88.5 173V178L86.5 183V192Z" fill="#D9D9D9"/>
<path d="M147.5 141L145.5 143.5V150L146.5 153.5V162.5H144.5L137.5 160L136 164L136.5 169.5L133 176L133.5 179L138 180.5L140.5 178.5L144 177L147 178L150 175.5H153.5L155 178V181.5L152.5 183V187.5L155 189L149.5 197L150.5 201L153.5 202L153 206.5L154 202.5L157.5 201L162 201.5L164 199H169L175 198.5L179.5 194.5L181 187.5L180 184.5L184 182L188 180L192 178L195.5 180L199.5 182.5L198 185.5L196 189.5L201 193L207 194L209.5 191.5L211 187.5L214 188L219 186L217.5 181.5L213.5 180L209 175.5L206 170L204.5 161L206.5 156L209 152.5L207.5 148L203 146.5L200 141.5L201 138.5L196.5 136L197 133L192.5 131.5L187 132.5L184.5 137L181 139L180 142.5L176.5 144.5L173 143.5L168 141L163 139.5L158 140.5L147.5 141Z" fill="#D9D9D9"/>
<path d="M110.5 62.5L108 55.5L110.5 57L112 58.5H115.5L118.5 60L122 59.5L124 61L125.5 60L128 61H134.5L132 63L136 64.5L142.5 64L148.5 71.5L152.5 74L151.5 77L152.5 81.5H155.5L158.5 78.5L161.5 76.5L164.5 76L165.5 80.5L172.5 83.5L178.5 93L176.5 99L177 103.5L184 111.5L191 109L194 114L192 119.5L196.5 123L197 133L192.5 131.5L187.5 132.5L185 137L181 139L179.5 142.5L176 145L169 141.5L163.5 139.5L157.5 140.5L148 141L145.5 144L142 139.5L139 139L129.5 136L120.5 134L123 131L123.5 129L127 125L132 120.5L131.5 112.5L127 104L128 99.5L131.5 97.5L134.5 94.5V93L129.5 92.5L123.5 94L117 93H109.5L96 97L94 94.5L91 95L85.5 92.5V87.5L82.5 83.5V78.5L87 77.5L89.5 74L93.5 71.5L100 69H106.5L110 67L110.5 62.5Z" fill="#D9D9D9"/>
<path d="M103.5 49L99.5 53L106 55.5H108L112 58.5H115.5L118 60L122 59.5L124 61L125 60L128 61H134.5L132 63L136 64.5L142.5 64L148 71.5L152.5 74L151.5 76.5L152 81.5L155.5 82L161 76.5H164.5L169 72V67L163 65.5L158 61L151.5 60L149 56.5L152.5 50.5L151.5 45.5L147 39.5L145.5 33L142.5 32.5L141 28.5L138 26.5L133.5 27.5L127.5 30L124.5 34L120 33.5L114 36.5L108.5 37.5L105 34L103 36L102.5 43.5L103.5 45.5V49Z" fill="#D9D9D9"/>
<path d="M94 51L99.5 53L103.5 49V45.5L102.5 44L103 36L105 34L108.5 37.5L114 36.5L120 33.5L124.5 34L127.5 30L138 26.5L141 28.5L142.5 32.5L145.5 33L149 20.5L147 16C146.833 12.5 146.4 5.4 146 5C145.6 4.6 141.5 1.5 139.5 0H129.5L125.5 5.5L124 11L120.5 11.5L113.5 16.5L112.5 12.5L110 14L106.5 10L95.5 17L92 15V21L91.5 26L91 33.5L90 42L91 47L94 51Z" fill="#D9D9D9"/>
</svg>
