<svg width="332" height="236" viewBox="0 0 332 236" fill="none" xmlns="http://www.w3.org/2000/svg">
<path d="M0 184V186.5L3.5 187L8.5 188.5L12.5 193L13.5 197.5L19 201H26.5L38 201.5L48 207L49 210.5L46.5 214H41L36.5 216L39 218.5H45L47.5 222L53.5 223V218.5L55 214L60 217L61.5 221.5L65 223.5L68.5 220L73 218.5V214L71 211L69 203.5L71.5 199L70 195L71 189.5L73.5 187L73 183L74.5 178.5L76.5 176.5L74.5 174.5L71 176.5V173L73.5 170.5L75.5 171.5L78.5 173L85 174.5H89L92.5 172.5L98.5 169L100.5 165V159L97.5 153.5L96 156.5L93.5 154.5L94 150.5L96 147.5C95 146.667 92.9 145 92.5 145C92.1 145 89.6667 146 88.5 146.5L84.5 148.5L79.5 148V152H77.5L75.5 149L70 148L67 149L66 146.5L62 148.5L58 147.5L56.5 149.5L54 147.5H47L44.5 150.5H36.5L34.5 153H30L24.5 158V164L21 167L16.5 166.5L15 168.5L12 169.5L6 176.5H3.5L4.5 184H0Z" fill="#D9D9D9"/>
<path d="M100.5 159L97.5 153.5L99 150H101.5L102 148H105.5L105 151L107.5 155L109.5 160L107.5 164L110 168H112.5V166L116 164L117.5 167L116 169L116.5 172.5L115 175L112.5 177.5L114.5 179.5L119 177.5V180.5L122 182L121 185.5L120 191.5L114.5 195L120 197.5L121 204L119 207.5L116 205L112.5 206.5L113 213.5L110.5 217L104.5 219.5L102 222.5L106 225L107.5 222.5L112.5 225L110.5 229.5L104 231V235.5L98.5 232.5L92.5 228L96 222.5L94 215.5L91 215L87 222.5H84L73 218.5V214L71 211L69 203.5L71.5 199L70 195L71 189.5L73.5 187L73 183L74.5 178.5L76.5 176.5L74.5 174.5L71 176.5V173L73.5 170.5L75.5 171.5L78.5 173L85 174.5H89L92.5 172.5L98.5 169L100.5 165V159Z" fill="#D9D9D9"/>
<path d="M119 180.5L122 182L120.5 180.5L124.5 177L122.5 174.5H125.5L131.5 170.5L137 170L141 158L149 155.5V151.5H152.5L152 148L148 145.5V142L145 138L140 134.5L136 134L133 128.5L128 126.5L127 123L123.5 122.5L118 127L116.5 138.5L113 139.5L105.5 148L105 151L107.5 155L109.5 160L107.5 164L110 168H112.5V166L116 164L117.5 167L116 169L116.5 172.5L115 175L112.5 177.5L114.5 179.5L119 177.5V180.5Z" fill="#D9D9D9"/>
<path d="M127 123L123.5 122.5L128 122L129 121L132 119.5L135 116L134.5 112.5L136.5 111.5L139 106.5L141 103.5L144 101.5H147L150.5 101L156 103L161.5 105L163.5 114L162 122L164.5 124L163 126L162.5 132.5L163 134.5L160 136L159.5 138.5L163 142.5L161.5 147L163 150.5H159L156 148.5L152.5 151.5L152 148L148 145.5V142L145 138L140 134.5L136 134L133 128.5L128 126.5L127 123Z" fill="#D9D9D9"/>
<path d="M161.5 147L163 150.5H164.5L167.5 148.5H169.5L174.5 148L176.5 151.5V157.5L179 158.5L184 157.5V152L186 149.5L186.5 145.5L188.5 141.5L191 136.5L192.5 133.5V129.5L194 125.5L193.5 117.5L191 117L187 116H184L183 114H178L170 109L168 105L163 102.5L159.5 101.5L157.5 98.5L152.5 97L154 93L159.5 90L162.5 89V85L160 80L161.5 76L160.5 72.5L156 71L151.5 72L150.5 69L147 66L137.5 78.5V84H135L134.5 91L132 94.5V97L131 103.5L129.5 112L123.5 122.5L128 122L129 121L132 119.5L135 116L134.5 112.5L136.5 111.5L139 106.5L141 103.5L144 101.5H147L150.5 101L156 103L161.5 105L163.5 114L162 122L164.5 124L163 126L162.5 132.5L163 134.5L160 136L159.5 138.5L163 142.5L161.5 147Z" fill="#D9D9D9"/>
<path d="M194 125.5L193.5 117.5H196.5H201.5L205.5 115.5L207.5 119.5L212 121L216.5 120L218.5 115.5H221.5L224 110.5L226.5 109L233 107.5L235 109L233 111.5L236 115L239 117.5L233.5 119.5L227.5 123L229.5 126.5L226.5 129.5L229.5 131L228 133.5V137.5L225.5 142.5L226.5 147V155L228 158.5L222.5 160.5L219.5 157.5L217 155H213.5V159.5H209.5L206.5 154H203V159.5L198.5 158.5L198 162L194 163.5V162L189.5 161.5L188.5 158.5H186.5L185.5 160L184 157.5V152L186 149.5L186.5 145.5L188.5 141.5L191 136.5L192.5 133.5V129.5L194 125.5Z" fill="#D9D9D9"/>
<path d="M226.5 155L228 158.5L231.5 157L235.5 160L236 158.5L241 158L240.5 160L244 163.5L246 161.5L252 163.5L257 162L259 155L254.5 149L256.5 141.5L252 137L254 129.5L254.5 123.5L252 115L254.5 108L254 105.5L249.5 99L241.5 94L235 86L231 82.5L229.5 86.5L223 89.5L223.5 93.5L223 97L219.5 93.5V91L216 94.5L209.5 101L203.5 102L198.5 111.5L201.5 117.5L205.5 115.5L207.5 119.5L212 121L216.5 120L218.5 115.5H221.5L224 110.5L226.5 109L233 107.5L235 109L233 111.5L236 115L239 117.5L233.5 119.5L227.5 123L229.5 126.5L226.5 129.5L229.5 131L228 133.5V137.5L225.5 142.5L226.5 147V155Z" fill="#D9D9D9"/>
<path d="M203.5 102L198.5 111.5V100L203 97.5L206.5 92.5L211.5 89.5V84.5L214.5 82.5L213.5 77.5L209.5 75.5L211.5 70.5L218 69.5L226.5 71.5L234 71L237.5 72.5L235 76.5L232 79.5L234.5 83.5L231 82.5L229.5 86.5L223 89.5L223.5 93.5L223 97L219.5 93.5V91L216 94.5L209.5 101L203.5 102Z" fill="#D9D9D9"/>
<path d="M154 92.5L153 97L157.5 98.5L159.5 101.5L162 102.5L168 104.5L170 109L177.5 114H182.5L184.5 116H187L193 117.5H201L198.5 111.5V100.5L203 97.5L206.5 93L211.5 89.5V84.5L214.5 83L213.5 78L210 75L211.5 71.5L210 71L206 72L204 74.5L199.5 77L194 76L191.5 79.5L186.5 81.5L182.5 80.5L181 82.5L176 82L172.5 85L168.5 87.5V89.5L166.5 91.5L164 91L162 89L154 92.5Z" fill="#D9D9D9"/>
<path d="M150.5 69L147 66L149.5 63L153 60.5L159.5 59L167 54V50L172 47.5L175.5 45.5H178.5L181.5 46.5L185 46L187 48H193L195 49.5L201 49L206.5 47.5L212 48L219 47L221 46L226 47L230.5 51.5H235.5L240 53.5L242.5 57.5V63L240 66.5L237.5 70.5L237 72L230.5 71C228.667 71.3333 224.9 71.9 224.5 71.5C224.1 71.1 220 70 218 69.5L212 70.5V72L210 71L206.5 72.5L204 74.5L199.5 77L194 76L191 80L187 82L182.5 80.5L181.5 83L175.5 82L168.5 87.5L169 89.5L167 91.5H165L162.5 89.5V85L160 80L161.5 76.5L160.5 72.5L156 71L151.5 72L150.5 69Z" fill="#D9D9D9"/>
<path d="M249.5 99L254.5 107.5L263 105L270.5 102L274 96L278 89.5L286.5 83L292.5 84L290.5 82.5L288.5 75L282.5 69L278.5 64.5L279.5 58.5L278 50.5L273 43.5L270 43L260 40H256.5L250.5 48.5L248 49.5L241.5 50.5L240 53L243 57.5L242.5 63L237.5 72L232 79.5L235 83.5L231 82L241.5 94L249.5 99Z" fill="#D9D9D9"/>
<path d="M167.5 38.5V50L175 45.5L181.5 46.5L185 46L187 48H192L194.5 50L200.5 49L206.5 47.5L211.5 48L218.5 47.5L221 46L226 47L230.5 51.5H235.5L239.5 53L241.5 50.5L250.5 48.5L255 42L257 40L258 36.5L264 33L264.5 28.5L263 23L259 19.5L254 20L249.5 18.5L243.5 16.5L241 10.5L239 5.5L234.5 4.5L229.5 7L224.5 10.5L219.5 12.5L216.5 15L210.5 14L209.5 16H204L200.5 20L195.5 21L192 23L187.5 21.5L182.5 23.5L177 30.5L173.5 33L167.5 38.5Z" fill="#D9D9D9"/>
<path d="M239 5.5L235 4.5L241 1.5L246.5 0H251.5L256 1L260 5.5L268.5 11.5L277.5 14.5L283.5 13L288 14.5L295.5 15L302.5 16L302 18.5V24L295.5 31L300.5 34L304.5 38.5L301 44.5L297.5 43L291.5 48L288.5 46.5L285 51.5L288.5 53L282.5 58L281.5 64L278.5 64.5L279 58L278.5 51L273.5 44L260.5 40H257.5L258 36.5L264 33L265 29L263.5 23.5L259 20H253.5L243.5 16.5L239 5.5Z" fill="#D9D9D9"/>
<path d="M290 80L292 84H293L297.5 86L299.5 89L302 88L305 93L306 90.5L306.5 86.5L304.5 84L306.5 82L309 80L307.5 78.5L306.5 74.5L310.5 69.5L313.5 67.5L315 56L316 46.5L317 42L323 44.5L320 39L322.5 36.5L329.5 42L328.5 36.5L331.5 31L329.5 24L323.5 17.5V14L318 15L302 16V24L295.5 31.5L300 34L304 38.5L301 44.5L298 43L291.5 48L288.5 46.5L285.5 51.5L288.5 53L283 57.5L281.5 64L279 64.5L288.5 75L290 80Z" fill="#D9D9D9"/>
</svg>
