<svg width="289" height="229" viewBox="0 0 289 229" fill="none" xmlns="http://www.w3.org/2000/svg">
<path d="M19 130.5L18 129.5L16.5 132.5L10.5 134.5L7 138.5L8 142L15.5 140.5L16.5 145L8 148V155L1 158L0 169V184L7 189.5L6.5 194L3 195L1 200L3.5 202.5L4.5 206.5L8.5 211L14 207.5L18.5 209L17 213.5L12 215.5L10 219.5L14.5 222.5L22.5 226L27 228.5H33.5L45 226L54.5 219L53.5 214.5V209L57 204L67.5 196L73 193.5L82 199.5L83 196L86.5 191.5L87.5 189.5L90 187L91 184L93.5 183L94.5 181L93.5 179L94.5 177L97.5 175.5L95.5 170.5L97.5 169L101 170L101.5 166.5L98.5 164L95.5 167.5L94 164H90L86 163.5L84 166.5L80.5 169.5L77 172.5L74.5 171.5L73 167.5L75 162L74 159L72 156L70 157L67 154H63L61.5 155.5L59.5 158L55.5 156L54 158L49 158.5L44.5 155.5L40.5 155L37.5 156.5L36.5 154L34 156L33.5 151.5L30 147L26 142L21 136.5L20 135L19 130.5Z" fill="#D9D9D9"/>
<path d="M19 130.5L18 129.5V125L19.5 122L23.5 124L26 128V130.5L29.5 132.5L32 133.5L34.5 134.5L37 135.5L38 139L39.5 140.5L43 141L45.5 138.5L49 138L51 138.5L53.5 136.5L55.5 138.5L59.5 137L62 138.5H66.5L67 137H70.5L73.5 134.5L77 132.5L80 131H81.5L84.5 134.5V137L86 141V149L87.5 150.5L90 149.5L92 154L94.5 157.5H96.5L101 162.5L99.5 164L97.5 166.5L95.5 167.5L94 164H90L86 163.5L84.5 166L80 170L77 172.5L74.5 171.5L73 167.5L74 164L74.5 161L72.5 157.5L69.5 157L67 154L63.5 155L59.5 158L55.5 156.5L54 158L49 158.5L44.5 155.5L40.5 155L37.5 156.5L36.5 154L34 156L33.5 151.5L31.5 149L26.5 143L20 135L19 130.5Z" fill="#D9D9D9"/>
<path d="M81.5 126.5L82 131L84.5 134.5L84 136.5L86 141V149L87.5 150.5L90 149.5L92 154L94.5 158L96.5 157.5L99 160.5L102.5 159.5L104 155.5L105 153.5L109 152L113 150.5L121 151L125 152.5L126 158L125 161.5L127.5 165L130.5 166.5L129 163L128 160L131.5 156L133 152L136 149L140 150.5L143.5 148.5L145.5 150.5L148.5 151.5L151 153.5L152 156L153 153.5L153.5 150.5L151 149L150.5 147V145L149.5 142L150.5 139.5L149.5 137.285L150.5 135.5L149 133.5L148.5 129.5L149.5 125.5L151 121L149 117V113L149.5 109.5L152.5 106L151.5 100.5L148.5 91.5L147.5 87.5L145 86.5V84L144 82V79.5L146 78.5L146.5 76L144.5 74.5L140 76L135 73.5L132.5 75.5L130.5 82.5V87L133.5 96.5L129 104.5L134.5 110.5H133L130.5 111.5V114L128 115.5H124L121.5 117.5H118.5L114 121L110.5 121.5L107 120.5L103 121L98.5 123.5L96 122.5L83 125.5L81.5 126.5Z" fill="#D9D9D9"/>
<path d="M151 153.5L152 156L151.5 157L152.5 158.5C152.5 159.833 153 160.5 153 160.5C153 160.5 153.333 162.167 154 162.5L153.5 164L155 164.5V167L152 168L150.5 169.5L153 170L153.5 172.5L153 180.5L150 181.5L142 191.5L141.5 199.5L132.5 209L125 202.5L126.5 201V195.5L119 191.5H115L107.5 198.5V203L101.5 206H94.5L93 202.5L89.5 198.5L82 199L83 196L86 192L87.5 189L90 186.5L91 184L93.5 183L94 181.5L93.5 179L94.5 177L97.5 175.5L96.5 173.5L95.5 170.5L97.5 169L101 170L101.5 166.5L99 164.5L101 162.5L99 160.5L102.5 159.5L104 155.5L105 153.5L109 152L113 150.5L121 151L125 152.5L126 158L125 161.5L127.5 165L130.5 166.5L129 163L128 160L131.5 156L133 152L136 149L140 150.5L143.5 148.5L145.5 150.5L148.5 151.5L151 153.5Z" fill="#D9D9D9"/>
<path d="M23.5 124L22.5 123.5L24.5 122.5L25 116L19 111.5L25.5 107L24.5 99L26.5 97H23.5L28.5 93L26 90L30.5 88L41 86.5L42.5 79L45.5 73L48.5 73.5L53 71L52.5 67.5L57 66.5L59.5 64.5L63 66.5L68 66L72 64L80.5 65.5L81.5 74L85 74.5L86.5 73L89 73.5L89.5 75.5L92.5 74.5L94.5 77.5L100 78.5L103 75.5H106L108.5 70.5L115.5 74.5L118.5 75L117.5 71.5L118.5 70.5L123.5 73.5L126 76L132.5 75.5L130.5 82.5V87L132.5 92.5L133.5 96.5L130.5 102L129 104.5L132.5 107.5L134.5 110.5H133L130.5 111.5V114L128 115.5H124L121.5 117.5H118.5L114 121L110.5 121.5L107 120.5L103 121L98.5 123.5L96 122.5L83 125.5L81.5 126.5L82 131H80.5L70.5 137H67L66.5 138.5H62L59.5 137L55.5 138.5L53.5 136.5L51 138.5L49 138L45.5 138.5L43 141L39.5 140.5L38 139L37 135.5L26 130.5V128L23.5 124Z" fill="#D9D9D9"/>
<path d="M153 170L153.5 173L161 168L166.5 165.5L170 165L174.5 163L178.5 157.5L184 151L183.5 147L186 143.5L190 143L190.5 138.5L196 133.5L202 132L204 129.5L208 131.5H211L213 130L216.5 130.5V125L212.5 122L211.5 117L208 112V107L202 101.5L201.5 96L204.5 92L205 88.5L208 84L209.5 79L210.5 76L209 74L205 75H202L199.5 77L197 77.5L195.5 79.5H191.5L190.5 77L190 74L187.5 72.5L185 72L182.5 73.5L178 74L175 74.5L171 72L167.5 74L167 74.5H165.5L163 75L161.5 78L156 80L151 77.5L149.5 79L146 78.5L144 79V82L145.5 83.5L145 86.5L147.5 87.5L149 92.5L151 99L152.5 105.5L149.5 109.5L149 113V117L151 121L148 129L149 133.5L150.5 135.5L149.5 137.5L150.5 139.5L149.5 142L150.5 145V147L151 149.5L153.5 150.5L151.5 157L152.5 158.5L153.5 162.5V166L150.5 169.5L153 170Z" fill="#D9D9D9"/>
<path d="M167 74.5L163 75L163.5 72L159.5 67.5L159 63.5L160 59L158 56.5L156 51L158 47V41.5L157.5 37L156 31.5V28L159 23.5L162 22.5H166.5L174 19L175.5 16L178 12L181 7.5L183 4.5L190.5 0H193L197 0.5L201 2L203 5.5L206.5 4.5L209 6.5L209.5 10L216 16.5V18.5L211 24.5L208 29L205.5 31.5L203.5 36.5L201.5 39L200 46L199 45L196.5 45.5L196 51.5L199 48.5H202L204 50.5L205.5 54L208 58.5L209.5 63C210.667 65.1667 212.9 69.6 212.5 70C212.1 70.4 210.333 73.5 209.5 75L208.5 74L206.5 75.5L202 75L200 77L197 77.5L195.5 79.5H191L190 75L187.5 73L185 72L183 73.5L175 74.5L171 72L167 74.5Z" fill="#D9D9D9"/>
<path d="M216.5 125V131L221.5 129.5L225 127L229.5 129L233.5 127L239.5 122L242.5 127L245 126L247.5 129L250.5 126.5L257 124.5L259 121L262 113H271L276.5 115L284.5 112V107.5H280.5V103.5L288.5 98.5L287.5 90L279 81L275.5 80H273L272.5 81.5L270.5 83L265.5 78H261.5L259 77L258 78L253 78.5L250.5 80L247.5 79.5L245 81L244 79.5L242 77.5L236.5 77L233 77.5L233.5 76L229.5 73.5L227 73L225 72L221 73L219 70.5L212.5 69.5L209.5 74.5L210 76.5L208 83.5L205 88L204.5 92L201 95.5L202 101.5L208 107V112L211.5 117L212.5 122L216.5 125Z" fill="#D9D9D9"/>
<path d="M216 18.5V16.5L220 18.5H221.5L222.5 22H225.5L224.5 25L226.5 26.5H229L228.5 29L230.5 32.5L231.5 30.5L233.5 28L236.5 27.5L236 30.5L237 35.5L238 31.5L239.5 28H243.5L242.5 31.5L243.5 36.5L245 32.5L247.5 31.5L249.5 33L248.5 35.5L252 39L253 37L255.5 36.5V40L258 42L256.5 44L258 47L262 47.5L264 45.5L266 44L266.5 47L265 48L262.5 49.5L264.5 50.5L266 52.5L266.5 56.5H270.5V59.5L273 60.5L272 63.5L272.5 68.5L276 68L278 69L276 72L279.5 74.5L278.5 79.5L281 83L278 81H273L270.5 83L267.5 80.5L266 78.5H262.5L259 77L258 78.5H253L250.5 81L248.5 79.5L245.5 81L242.5 79L238 77.5H233L233.5 76L230.5 74H228.5L224.5 72L222.5 74L218.5 71L212.5 69.5L210.5 65.5L208.5 64V59.5L204 50.5L202.5 49L199.5 48.5L196 52V45.5L199 45L200 46L201 39L203.5 36.5L205.5 31.5L208.5 28L216 18.5Z" fill="#D9D9D9"/>
</svg>
